<svg width="20" height="21" xmlns="http://www.w3.org/2000/svg"><path d="M18.508 3.936a4.148 4.148 0 0 1 1.176 2.912v9.023c-.01.565-.121 1.1-.335 1.607a4.189 4.189 0 0 1-3.862 2.563H4.808c-.019 0-.032-.005-.041-.014h-.055a4.074 4.074 0 0 1-1.593-.341 4.031 4.031 0 0 1-1.306-.916 4.2 4.2 0 0 1-.875-1.327 4.104 4.104 0 0 1-.314-1.6V6.739a4.228 4.228 0 0 1 .362-1.6c.224-.5.527-.938.91-1.312a4.104 4.104 0 0 1 1.326-.868 4.183 4.183 0 0 1 1.6-.308v.014a.284.284 0 0 1 .109-.014h.71v-.847c0-.265.09-.483.267-.657a.896.896 0 0 1 .65-.26c.264 0 .48.087.649.26a.902.902 0 0 1 .253.657v.847h5.55v-.847c0-.265.09-.483.267-.657a.896.896 0 0 1 .65-.26c.264 0 .48.087.65.26a.902.902 0 0 1 .252.657v.847h.67a.34.34 0 0 1 .123.014 4.199 4.199 0 0 1 2.885 1.272zm-.643 4.771v-1.86c0-.628-.223-1.18-.67-1.654a2.352 2.352 0 0 0-1.613-.71h-.752v.833a.9.9 0 0 1-.267.663.868.868 0 0 1-.635.267.878.878 0 0 1-.657-.267.913.913 0 0 1-.26-.663v-.834h-5.55v.834a.9.9 0 0 1-.267.663.868.868 0 0 1-.635.267.878.878 0 0 1-.657-.267.913.913 0 0 1-.26-.663v-.834h-.82c-.319 0-.62.057-.902.171A2.377 2.377 0 0 0 2.649 5.87a2.28 2.28 0 0 0-.206.896v1.941h15.422zm0 1.545H2.443v5.592a2.38 2.38 0 0 0 .697 1.682c.22.218.47.389.753.512.282.123.587.185.916.185h10.677c.638 0 1.19-.224 1.655-.67.474-.474.715-1.012.724-1.614v-5.687z" fill="#3A3C4D" fill-rule="evenodd"/></svg>