<svg width="19" height="19" xmlns="http://www.w3.org/2000/svg"><path d="M5.506 19.014a.938.938 0 0 1-.656-.274 1.007 1.007 0 0 1-.287-.67v-3.213a4.05 4.05 0 0 1-1.6-.348 4.26 4.26 0 0 1-1.326-.923A4.12 4.12 0 0 1 .434 10.66V5.027A4.199 4.199 0 0 1 1.719 2.13 4.148 4.148 0 0 1 4.63.953l.014.014a.284.284 0 0 1 .109-.014h9.72c.055 0 .087.005.096.014a4.254 4.254 0 0 1 1.593.355c.497.219.932.52 1.306.903.373.392.663.836.868 1.333.205.496.308 1.023.308 1.579v5.537a.284.284 0 0 1-.014.11 4.225 4.225 0 0 1-1.258 2.884 4.39 4.39 0 0 1-1.333.875 4.02 4.02 0 0 1-1.58.314H9.84l-3.486 3.788c-.183.19-.415.31-.698.355h-.082a.152.152 0 0 1-.068.014zm3.322-5.565c.292-.291.56-.437.807-.437a.77.77 0 0 1 .164.027h4.662c.319 0 .622-.061.91-.185a2.45 2.45 0 0 0 1.277-1.278 2.31 2.31 0 0 0 .178-.902V5.137a2.42 2.42 0 0 0-.67-1.654 2.447 2.447 0 0 0-.745-.513 2.298 2.298 0 0 0-.868-.199H4.631a2.255 2.255 0 0 0-1.64.67c-.475.456-.716.998-.725 1.627v5.592c0 .32.059.62.177.902a2.433 2.433 0 0 0 1.224 1.272c.278.128.576.196.896.205h.93a.9.9 0 0 1 .662.267.9.9 0 0 1 .267.663v2.119l2.406-2.639z" fill="#3A3C4D" fill-rule="evenodd"/></svg>