<svg width="18" height="24" xmlns="http://www.w3.org/2000/svg"><path d="M10.04 10.822c.354 2.638 1.385 4.463 3.093 5.478v4.536c0 .434-.08.844-.237 1.23a3.072 3.072 0 0 1-1.68 1.688 3.032 3.032 0 0 1-1.195.246c-.421 0-.829-.082-1.221-.246a3.103 3.103 0 0 1-1.01-.668 2.991 2.991 0 0 1-.686-1.002 3.162 3.162 0 0 1-.247-1.248v-4.36c-1.535-.492-2.847-1.382-3.937-2.671a8.324 8.324 0 0 1-1.266-2.03 8.047 8.047 0 0 1-.633-2.347 2.427 2.427 0 0 1-.052-.51V4.014c0-.399.085-.788.255-1.17.17-.38.401-.717.694-1.01a2.886 2.886 0 0 1 1.01-.65c.393-.153.8-.229 1.222-.229.844 0 1.57.293 2.18.879.281.281.498.612.65.993.153.381.229.777.229 1.187v4.974c.012.27.082.525.21.765.13.24.306.448.528.624.211.164.446.293.703.387a2.25 2.25 0 0 0 1.39.058zm1.024-.654c.291-.332.442-.719.452-1.162V4.014c0-.41.082-.806.246-1.187.164-.38.392-.712.685-.993a2.886 2.886 0 0 1 1.011-.65 3.348 3.348 0 0 1 2.426 0 2.916 2.916 0 0 1 1.643 1.643c.153.381.229.777.229 1.187v4.5c0 1.64-.416 3.134-1.248 4.482a8.23 8.23 0 0 1-1.653 1.943c-1.564-.688-2.828-2.279-3.791-4.771z" fill="#3C88E9" fill-rule="evenodd"/></svg>