<?xml version="1.0" encoding="UTF-8"?>
<svg width="198px" height="24px" viewBox="0 0 198 24" version="1.1" xmlns="http://www.w3.org/2000/svg" xmlns:xlink="http://www.w3.org/1999/xlink">
    <!-- Generator: Sketch 50.2 (55047) - http://www.bohemiancoding.com/sketch -->
    <title>Wordplease</title>
    <desc>Created with Sketch.</desc>
    <defs></defs>
    <g id="Symbols" stroke="none" stroke-width="1" fill="none" fill-rule="evenodd" opacity="0.652511161">
        <path d="M15.6269531,15.4160156 C15.6269531,15.8378927 15.7441395,16.1806627 15.9785156,16.4443359 C16.2128918,16.7080091 16.5292949,16.8398438 16.9277344,16.8398438 C17.3144551,16.8398438 17.6455064,16.7109388 17.9208984,16.453125 C18.1962904,16.1953112 18.345703,15.8730488 18.3691406,15.4863281 L18.3691406,3.1640625 C18.3691406,2.74218539 18.4541007,2.3349629 18.6240234,1.94238281 C18.7939462,1.54980272 19.0253892,1.20703271 19.3183594,0.9140625 C19.6113296,0.621092285 19.9540996,0.395508604 20.3466797,0.237304688 C20.7392598,0.0791007715 21.1582009,0 21.6035156,0 C22.0253927,0 22.4355449,0.0820304297 22.8339844,0.24609375 C23.2324239,0.41015707 23.5781235,0.632811094 23.8710938,0.9140625 C24.164064,1.20703271 24.395507,1.54980272 24.5654297,1.94238281 C24.7353524,2.3349629 24.8203125,2.74218539 24.8203125,3.1640625 L24.8203125,15.7324219 C24.8203125,16.7753958 24.6210957,17.7714796 24.2226562,18.7207031 C23.8242168,19.6699266 23.2617224,20.5078089 22.5351562,21.234375 C21.8203089,21.9492223 20.9824267,22.5058574 20.0214844,22.9042969 C19.0605421,23.3027364 18.0468803,23.5019531 16.9804688,23.5019531 C16.1367145,23.5019531 15.3251992,23.3701185 14.5458984,23.1064453 C13.7665977,22.8427721 13.0546907,22.4589869 12.4101562,21.9550781 C11.0273368,22.9863333 9.48633662,23.5019531 7.78710938,23.5019531 C6.7324166,23.5019531 5.72754384,23.3027364 4.77246094,22.9042969 C3.81737804,22.5058574 2.98242545,21.9492223 2.26757812,21.234375 C1.5527308,20.5195277 0.996095742,19.6875047 0.59765625,18.7382812 C0.199216758,17.7890578 0,16.7871146 0,15.7324219 L0,3.1640625 C0,2.74218539 0.0849600879,2.3349629 0.254882812,1.94238281 C0.424805537,1.54980272 0.656248535,1.20703271 0.94921875,0.9140625 C1.23047016,0.632811094 1.56738085,0.41015707 1.95996094,0.24609375 C2.35254103,0.0820304297 2.77148215,0 3.21679688,0 C3.6621116,0 4.08105272,0.0791007715 4.47363281,0.237304688 C4.8662129,0.395508604 5.20898291,0.621092285 5.50195312,0.9140625 C5.79492334,1.20703271 6.02343668,1.54980272 6.1875,1.94238281 C6.35156332,2.3349629 6.43359375,2.74218539 6.43359375,3.1640625 L6.43359375,15.4160156 C6.43359375,15.7792987 6.57128769,16.1074204 6.84667969,16.4003906 C7.12207169,16.6933608 7.44726375,16.8398438 7.82226562,16.8398438 C8.23242393,16.8398438 8.56054564,16.7197278 8.80664062,16.4794922 C9.05273561,16.2392566 9.18749988,15.9199239 9.2109375,15.5214844 L9.2109375,3.21679688 C9.2109375,2.77148215 9.29296793,2.35254103 9.45703125,1.95996094 C9.62109457,1.56738085 9.84960791,1.22461084 10.1425781,0.931640625 C10.458986,0.63867041 10.8134746,0.41015707 11.2060547,0.24609375 C11.5986348,0.0820304297 12.0058573,0 12.4277344,0 C12.8496115,0 13.2539043,0.0820304297 13.640625,0.24609375 C14.0273457,0.41015707 14.3789047,0.63867041 14.6953125,0.931640625 C14.9882827,1.22461084 15.2167961,1.56738085 15.3808594,1.95996094 C15.5449227,2.35254103 15.6269531,2.77148215 15.6269531,3.21679688 L15.6269531,15.4160156 Z M42.5386719,2.54882812 C43.3941449,3.40430115 44.0562476,4.41796289 44.525,5.58984375 C44.9937523,6.76172461 45.228125,8.05077422 45.228125,9.45703125 L45.228125,14.1328125 C45.228125,15.5390695 44.996682,16.8222598 44.533789,17.9824219 C44.0708961,19.1425839 43.4058637,20.1503863 42.5386719,21.0058594 C41.7417929,21.8027384 40.8013726,22.4179666 39.7173828,22.8515625 C38.633393,23.2851584 37.4996153,23.5019531 36.3160156,23.5019531 C35.1206971,23.5019531 33.9869194,23.2880881 32.9146484,22.8603516 C31.8423774,22.432615 30.8960978,21.8144572 30.0757812,21.0058594 C29.2085894,20.1503863 28.5406273,19.1425839 28.071875,17.9824219 C27.6031226,16.8222598 27.36875,15.5390695 27.36875,14.1328125 L27.36875,9.45703125 C27.36875,8.05077422 27.6031226,6.75879495 28.071875,5.58105469 C28.5406273,4.40331442 29.2085894,3.39258234 30.0757812,2.54882812 C30.8960978,1.75194914 31.8453071,1.13965058 32.9234375,0.711914062 C34.0015679,0.284177549 35.1324159,0.0703125 36.3160156,0.0703125 C37.4878965,0.0703125 38.6158149,0.284177549 39.6998047,0.711914062 C40.7837945,1.13965058 41.7300741,1.75194914 42.5386719,2.54882812 Z M38.9351562,9.47460938 C38.9351562,8.34960375 38.7007836,7.55273672 38.2320312,7.08398438 C37.7632789,6.61523203 37.1246134,6.38085938 36.3160156,6.38085938 C35.4839802,6.38085938 34.8335961,6.6035134 34.3648437,7.04882812 C33.8960914,7.49414285 33.6617187,8.27929125 33.6617187,9.40429688 L33.6617187,14.1855469 C33.6617187,15.2988337 33.899021,16.0781228 34.3736328,16.5234375 C34.8482445,16.9687522 35.495699,17.1914062 36.3160156,17.1914062 C37.1363322,17.1914062 37.7779273,16.9716819 38.2408203,16.5322266 C38.7037132,16.0927712 38.9351562,15.3105525 38.9351562,14.1855469 L38.9351562,9.47460938 Z M47.9699218,3.41015625 C47.9699218,2.99999795 48.0519523,2.60156443 48.2160156,2.21484375 C48.3800789,1.82812307 48.6027329,1.48828271 48.8839843,1.1953125 C49.1652357,0.914061094 49.4992168,0.69140707 49.8859375,0.52734375 C50.2726581,0.36328043 50.676951,0.28125 51.0988281,0.28125 L57.9191406,0.28125 C59.1261779,0.28125 60.2833929,0.518552314 61.3908203,0.993164062 C62.4982477,1.46777581 63.4738239,2.13280822 64.3175781,2.98828125 C65.1613323,3.84375428 65.8117164,4.83104909 66.26875,5.95019531 C66.7257835,7.06934153 66.9542968,8.23827516 66.9542968,9.45703125 C66.9542968,10.7695378 66.6847683,12.0234315 66.1457031,13.21875 C65.6066379,14.4140685 64.8507861,15.4511675 63.878125,16.3300781 L65.3722656,18.0527344 C65.958206,18.7441441 66.2511718,19.4589807 66.2511718,20.1972656 C66.2511718,20.6191427 66.1691414,21.0263652 66.0050781,21.4189453 C65.8410148,21.8115254 65.6125014,22.1542954 65.3195312,22.4472656 C65.026561,22.7402358 64.69258,22.9658195 64.3175781,23.1240234 C63.9425762,23.2822274 63.550002,23.3613281 63.1398437,23.3613281 C62.2843707,23.3613281 61.5812527,23.0683623 61.0304687,22.4824219 L57.5324218,18.6503906 L54.2101562,18.6503906 L54.2101562,20.3027344 C54.2101562,20.7246115 54.1310554,21.123045 53.9728515,21.4980469 C53.8146476,21.8730487 53.5949232,22.2011705 53.3136718,22.4824219 C53.0324204,22.7636733 52.6984394,22.9833976 52.3117187,23.1416016 C51.924998,23.2998055 51.5207052,23.3789062 51.0988281,23.3789062 C50.676951,23.3789062 50.2726581,23.2998055 49.8859375,23.1416016 C49.4992168,22.9833976 49.1652357,22.7636733 48.8839843,22.4824219 C48.6027329,22.1894517 48.3800789,21.8554706 48.2160156,21.4804688 C48.0519523,21.1054669 47.9699218,20.7128927 47.9699218,20.3027344 L47.9699218,3.41015625 Z M54.2101562,12.4277344 L58.0421875,12.4277344 C58.3468765,12.4277344 58.6603499,12.3457039 58.9826171,12.1816406 C59.3048844,12.0175773 59.5949205,11.789064 59.8527343,11.4960938 C60.4269559,10.8515593 60.7140625,10.1718786 60.7140625,9.45703125 C60.7140625,9.10546699 60.6349617,8.75097835 60.4767578,8.39355469 C60.3185538,8.03613103 60.1046888,7.71679828 59.8351562,7.43554688 C59.5773424,7.15429547 59.2873063,6.9345711 58.965039,6.77636719 C58.6427718,6.61816327 58.323439,6.5390625 58.0070312,6.5390625 L54.2101562,6.5390625 L54.2101562,12.4277344 Z M86.7644531,14.1328125 C86.7644531,15.5390695 86.5330101,16.8193302 86.0701171,17.9736328 C85.6072242,19.1279355 84.9480511,20.1152303 84.0925781,20.9355469 C83.2839803,21.7089882 82.3464896,22.3007792 81.2800781,22.7109375 C80.2136665,23.1210958 79.0828184,23.3261719 77.8874999,23.3261719 L71.9988281,23.3261719 C71.5769509,23.3261719 71.1755878,23.2470711 70.7947265,23.0888672 C70.4138652,22.9306633 70.0828138,22.7109389 69.8015624,22.4296875 C69.5085922,22.1367173 69.2830085,21.8027363 69.1248046,21.4277344 C68.9666007,21.0527325 68.8874999,20.6601583 68.8874999,20.25 L68.8874999,3.35742187 C68.8874999,2.94726357 68.9666007,2.55175972 69.1248046,2.17089844 C69.2830085,1.79003716 69.5085922,1.45898578 69.8015624,1.17773438 C70.0828138,0.896482969 70.4138652,0.676758604 70.7947265,0.518554688 C71.1755878,0.360350771 71.5769509,0.28125 71.9988281,0.28125 L77.8874999,0.28125 C79.0828184,0.28125 80.2136665,0.483396416 81.2800781,0.887695312 C82.3464896,1.29199421 83.2839803,1.88085551 84.0925781,2.65429688 C84.9480511,3.46289467 85.6072242,4.44433017 86.0701171,5.59863281 C86.5330101,6.75293546 86.7644531,8.03905541 86.7644531,9.45703125 L86.7644531,14.1328125 Z M80.4890624,9.40429688 C80.4890624,8.6191367 80.3806651,8.01855677 80.1638671,7.60253906 C79.9470692,7.18652136 79.6541033,6.90527417 79.2849609,6.75878906 C78.9158184,6.61230396 78.4500027,6.5390625 77.8874999,6.5390625 L75.1277343,6.5390625 L75.1277343,17.0859375 L77.8874999,17.0859375 C78.7312541,17.0859375 79.375779,16.8867207 79.8210937,16.4882812 C80.2664084,16.0898418 80.4890624,15.3222713 80.4890624,14.1855469 L80.4890624,9.40429688 Z M99.2445312,0.28125 C100.451568,0.28125 101.608783,0.512692998 102.716211,0.975585938 C103.823638,1.43847888 104.799214,2.09179266 105.642969,2.93554688 C106.486723,3.77930109 107.140037,4.75487728 107.60293,5.86230469 C108.065823,6.9697321 108.297266,8.13280641 108.297266,9.3515625 C108.297266,10.546881 108.062893,11.6982367 107.594141,12.8056641 C107.125388,13.9130915 106.469145,14.876949 105.625391,15.6972656 C104.781636,16.5410198 103.80606,17.1943336 102.698633,17.6572266 C101.591205,18.1201195 100.43985,18.3515625 99.2445312,18.3515625 L95.7289062,18.3515625 L95.7289062,20.53125 C95.7289062,20.9414083 95.6468757,21.3369122 95.4828124,21.7177734 C95.3187491,22.0986347 95.0960951,22.4296861 94.8148437,22.7109375 C94.5335922,22.9921889 94.1996112,23.2119133 93.8128905,23.3701172 C93.4261698,23.5283211 93.021877,23.6074219 92.5999999,23.6074219 C92.1898416,23.6074219 91.7943377,23.5312508 91.4134765,23.3789062 C91.0326152,23.2265617 90.7015638,23.009767 90.4203124,22.7285156 C89.7992155,22.1425752 89.4886718,21.4101606 89.4886718,20.53125 L89.4886718,3.41015625 C89.4886718,2.99999795 89.5707022,2.60156443 89.7347655,2.21484375 C89.8988288,1.82812307 90.1214829,1.48828271 90.4027343,1.1953125 C90.6839857,0.914061094 91.0179667,0.69140707 91.4046874,0.52734375 C91.7914081,0.36328043 92.1898416,0.28125 92.5999999,0.28125 L99.2445312,0.28125 Z M95.7289062,12.1113281 L99.3499999,12.1113281 C99.6664077,12.1113281 99.9828108,12.0380867 100.299219,11.8916016 C100.615626,11.7451165 100.902733,11.54297 101.160547,11.2851562 C101.418361,11.0273425 101.626366,10.7285173 101.78457,10.3886719 C101.942774,10.0488264 102.021875,9.70312676 102.021875,9.3515625 C102.021875,8.97656063 101.945704,8.61621267 101.793359,8.27050781 C101.641015,7.92480296 101.42422,7.61132953 101.142969,7.33007812 C100.885155,7.08398314 100.595119,6.8906257 100.272851,6.75 C99.9505842,6.6093743 99.6312515,6.5390625 99.3148437,6.5390625 L95.7289062,6.5390625 L95.7289062,12.1113281 Z M122.253906,17.1386719 C122.675783,17.1386719 123.074217,17.2177726 123.449219,17.3759766 C123.824221,17.5341805 124.158202,17.7597642 124.451172,18.0527344 C124.732423,18.3339858 124.952148,18.6679668 125.110351,19.0546875 C125.268555,19.4414082 125.347656,19.845701 125.347656,20.2675781 C125.347656,21.1464888 125.048831,21.8789033 124.451172,22.4648438 C124.16992,22.7343763 123.838869,22.9453117 123.458008,23.0976562 C123.077146,23.2500008 122.675783,23.3261719 122.253906,23.3261719 L112.9375,23.3261719 C112.726561,23.3261719 112.515626,23.3085939 112.304687,23.2734375 L112.181641,23.2382812 C111.490231,23.0976555 110.916018,22.7373076 110.458984,22.1572266 C110.001951,21.5771455 109.773437,20.9296911 109.773437,20.2148438 C109.773437,20.0273428 109.791015,19.845704 109.826172,19.6699219 L109.826172,3.04101562 C109.826172,2.63085732 109.908202,2.23828313 110.072266,1.86328125 C110.236329,1.48827938 110.458983,1.16015766 110.740234,0.87890625 C111.021486,0.597654844 111.352537,0.380860137 111.733398,0.228515625 C112.11426,0.0761711133 112.515623,0 112.9375,0 C113.359377,0 113.76367,0.0761711133 114.150391,0.228515625 C114.537111,0.380860137 114.871092,0.597654844 115.152344,0.87890625 C115.433595,1.16015766 115.656249,1.48827938 115.820312,1.86328125 C115.984376,2.23828313 116.066406,2.63085732 116.066406,3.04101562 L116.066406,17.1035156 L122.253906,17.1386719 Z M130.233984,23.3261719 C129.706638,23.2792966 129.223244,23.1181654 128.783789,22.8427734 C128.344334,22.5673814 127.995704,22.2070335 127.73789,21.7617188 C127.480077,21.316404 127.351172,20.8242214 127.351172,20.2851562 L127.351172,3.41015625 C127.351172,2.98827914 127.430273,2.58691597 127.588476,2.20605469 C127.74668,1.82519341 127.966405,1.48828271 128.247656,1.1953125 C128.821878,0.585934453 129.554292,0.28125 130.444922,0.28125 L139.778906,0.28125 C140.200783,0.28125 140.599217,0.360350771 140.974219,0.518554688 C141.34922,0.676758604 141.683202,0.902342285 141.976172,1.1953125 C142.257423,1.48828271 142.474218,1.82812307 142.626562,2.21484375 C142.778907,2.60156443 142.855078,2.99999795 142.855078,3.41015625 C142.855078,3.83203336 142.778907,4.23632619 142.626562,4.62304688 C142.474218,5.00976756 142.257423,5.34374859 141.976172,5.625 C141.683202,5.91797021 141.34922,6.1435539 140.974219,6.30175781 C140.599217,6.45996173 140.200783,6.5390625 139.778906,6.5390625 L133.591406,6.5390625 L133.591406,8.41992188 L138.42539,8.41992188 C138.847268,8.41992188 139.248631,8.49609299 139.629492,8.6484375 C140.010353,8.80078201 140.341405,9.01757672 140.622656,9.29882812 C140.903908,9.58007953 141.126562,9.91406057 141.290625,10.3007812 C141.454688,10.6875019 141.536719,11.0859354 141.536719,11.4960938 C141.536719,12.339848 141.232034,13.0488253 140.622656,13.6230469 C140.329686,13.8925795 139.995705,14.1035149 139.620703,14.2558594 C139.245701,14.4082039 138.847268,14.484375 138.42539,14.484375 L133.591406,14.484375 L133.591406,17.1035156 L139.778906,17.1035156 C140.200783,17.1035156 140.599217,17.1826164 140.974219,17.3408203 C141.34922,17.4990242 141.683202,17.7246079 141.976172,18.0175781 C142.257423,18.3105483 142.474218,18.6533183 142.626562,19.0458984 C142.778907,19.4384785 142.855078,19.845701 142.855078,20.2675781 C142.855078,21.1464888 142.562112,21.8789033 141.976172,22.4648438 C141.69492,22.7343763 141.363869,22.9453117 140.983008,23.0976562 C140.602146,23.2500008 140.200783,23.3261719 139.778906,23.3261719 L130.233984,23.3261719 Z M158.358594,23.5722656 C157.913279,23.5722656 157.491408,23.4902352 157.092969,23.3261719 C156.694529,23.1621086 156.348829,22.9335952 156.055859,22.640625 C155.762889,22.3476548 155.531446,22.0048848 155.361523,21.6123047 C155.191601,21.2197246 155.10664,20.8125021 155.10664,20.390625 L155.10664,18.28125 L150.466015,18.28125 L150.466015,20.390625 C150.466015,20.8125021 150.383985,21.2197246 150.219922,21.6123047 C150.055858,22.0048848 149.827345,22.3476548 149.534375,22.640625 C149.241405,22.9335952 148.898635,23.1621086 148.506055,23.3261719 C148.113474,23.4902352 147.694533,23.5722656 147.249219,23.5722656 C146.803904,23.5722656 146.384963,23.4902352 145.992383,23.3261719 C145.599803,23.1621086 145.262892,22.9335952 144.98164,22.640625 C144.68867,22.3476548 144.457227,22.0048848 144.287305,21.6123047 C144.117382,21.2197246 144.032422,20.8125021 144.032422,20.390625 L144.032422,9.79101562 C144.032422,8.32616455 144.228709,6.99317007 144.621289,5.79199219 C145.013869,4.59081431 145.585152,3.56836359 146.335156,2.72460938 C147.08516,1.86913635 148.005073,1.21875223 149.094922,0.7734375 C150.184771,0.328122773 151.409368,0.10546875 152.76875,0.10546875 C154.116413,0.10546875 155.332221,0.316404141 156.416211,0.73828125 C157.500201,1.16015836 158.423043,1.78710521 159.184765,2.61914062 C160.766805,4.3535243 161.557812,6.83787445 161.557812,10.0722656 L161.557812,20.390625 C161.557812,20.8125021 161.475782,21.2197246 161.311719,21.6123047 C161.147655,22.0048848 160.919142,22.3476548 160.626172,22.640625 C160.333201,22.9335952 159.987502,23.1621086 159.589062,23.3261719 C159.190623,23.4902352 158.780471,23.5722656 158.358594,23.5722656 Z M155.10664,11.8828125 L155.10664,10.0195312 C155.10664,8.76561873 154.94258,7.86621366 154.614453,7.32128906 C154.286326,6.77636446 153.717973,6.50390625 152.909375,6.50390625 C152.428904,6.50390625 152.042189,6.5566401 151.749219,6.66210938 C151.456248,6.76757865 151.221876,6.94335814 151.046094,7.18945312 C150.659373,7.72851832 150.466015,8.73046143 150.466015,10.1953125 L150.466015,11.8828125 L155.10664,11.8828125 Z M166.971484,23.3261719 C166.432419,23.3261719 165.937307,23.2441414 165.486133,23.0800781 C165.034958,22.9160148 164.645314,22.6875015 164.317187,22.3945312 C164.012498,22.101561 163.778126,21.7529317 163.614062,21.3486328 C163.449999,20.9443339 163.367969,20.5019555 163.367969,20.0214844 C163.367969,19.0722609 163.675583,18.3544946 164.29082,17.8681641 C164.906058,17.3818335 165.799603,17.1386719 166.971484,17.1386719 L172.754687,17.1386719 C172.883594,17.1386719 173.018358,17.1152346 173.158984,17.0683594 C173.29961,17.0214841 173.422656,16.9511723 173.528125,16.8574219 C173.821095,16.6347645 173.967578,16.3417987 173.967578,15.9785156 C173.967578,15.4746069 173.77422,15.1289072 173.3875,14.9414062 C173.235155,14.8710934 173.100391,14.8242189 172.983203,14.8007812 L172.789844,14.765625 L170.030078,14.765625 C169.080854,14.7421874 168.17559,14.5517596 167.314258,14.1943359 C166.452925,13.8369123 165.700003,13.3418 165.055469,12.7089844 C164.399215,12.0644499 163.895314,11.3291057 163.54375,10.5029297 C163.192186,9.67675368 163.016406,8.78906725 163.016406,7.83984375 C163.016406,6.85546383 163.212693,5.90332491 163.605273,4.98339844 C163.997853,4.06347196 164.551559,3.24609732 165.266406,2.53125 C165.981253,1.81640268 166.801558,1.26269728 167.727344,0.870117188 C168.653129,0.4775371 169.619917,0.28125 170.627734,0.28125 L175.602344,0.28125 C176.750787,0.28125 177.647262,0.544919238 178.291797,1.07226562 C178.936331,1.59961201 179.258594,2.3437452 179.258594,3.3046875 C179.258594,4.34766146 178.939261,5.14745815 178.300586,5.70410156 C177.661911,6.26074497 176.762506,6.5390625 175.602344,6.5390625 L170.205859,6.5390625 C169.90117,6.5390625 169.655079,6.6298819 169.467578,6.81152344 C169.280077,6.99316497 169.186328,7.22460797 169.186328,7.50585938 C169.186328,7.79882959 169.262499,8.04785054 169.414844,8.25292969 C169.567188,8.45800884 169.766405,8.56054688 170.0125,8.56054688 L172.666797,8.56054688 C173.686333,8.56054688 174.65605,8.73339671 175.575976,9.07910156 C176.495903,9.42480642 177.307418,9.91405934 178.010547,10.546875 C178.713675,11.1796907 179.255662,11.9296832 179.636523,12.796875 C180.017385,13.6640668 180.207812,14.6015575 180.207812,15.609375 C180.207812,16.6171925 180.017385,17.5898391 179.636523,18.5273438 C179.255662,19.4648484 178.713675,20.2910121 178.010547,21.0058594 C177.307418,21.7441443 176.495903,22.3154277 175.575976,22.7197266 C174.65605,23.1240255 173.686333,23.3261719 172.666797,23.3261719 L166.971484,23.3261719 Z M184.654687,23.3261719 C184.127341,23.2792966 183.643947,23.1181654 183.204492,22.8427734 C182.765037,22.5673814 182.416407,22.2070335 182.158594,21.7617188 C181.90078,21.316404 181.771875,20.8242214 181.771875,20.2851562 L181.771875,3.41015625 C181.771875,2.98827914 181.850976,2.58691597 182.009179,2.20605469 C182.167383,1.82519341 182.387108,1.48828271 182.668359,1.1953125 C183.242581,0.585934453 183.974995,0.28125 184.865625,0.28125 L194.199609,0.28125 C194.621486,0.28125 195.01992,0.360350771 195.394922,0.518554688 C195.769924,0.676758604 196.103905,0.902342285 196.396875,1.1953125 C196.678126,1.48828271 196.894921,1.82812307 197.047265,2.21484375 C197.19961,2.60156443 197.275781,2.99999795 197.275781,3.41015625 C197.275781,3.83203336 197.19961,4.23632619 197.047265,4.62304688 C196.894921,5.00976756 196.678126,5.34374859 196.396875,5.625 C196.103905,5.91797021 195.769924,6.1435539 195.394922,6.30175781 C195.01992,6.45996173 194.621486,6.5390625 194.199609,6.5390625 L188.012109,6.5390625 L188.012109,8.41992188 L192.846094,8.41992188 C193.267971,8.41992188 193.669334,8.49609299 194.050195,8.6484375 C194.431056,8.80078201 194.762108,9.01757672 195.043359,9.29882812 C195.324611,9.58007953 195.547265,9.91406057 195.711328,10.3007812 C195.875391,10.6875019 195.957422,11.0859354 195.957422,11.4960938 C195.957422,12.339848 195.652737,13.0488253 195.043359,13.6230469 C194.750389,13.8925795 194.416408,14.1035149 194.041406,14.2558594 C193.666404,14.4082039 193.267971,14.484375 192.846094,14.484375 L188.012109,14.484375 L188.012109,17.1035156 L194.199609,17.1035156 C194.621486,17.1035156 195.01992,17.1826164 195.394922,17.3408203 C195.769924,17.4990242 196.103905,17.7246079 196.396875,18.0175781 C196.678126,18.3105483 196.894921,18.6533183 197.047265,19.0458984 C197.19961,19.4384785 197.275781,19.845701 197.275781,20.2675781 C197.275781,21.1464888 196.982815,21.8789033 196.396875,22.4648438 C196.115623,22.7343763 195.784572,22.9453117 195.403711,23.0976562 C195.022849,23.2500008 194.621486,23.3261719 194.199609,23.3261719 L184.654687,23.3261719 Z" id="Wordplease" fill="#3A3C4D"></path>
    </g>
</svg>