<svg width="19" height="18" xmlns="http://www.w3.org/2000/svg"><path d="M9.252 17.959a.973.973 0 0 1-.67-.273l-.082-.082-5.756-5.825-.068-.068A9.293 9.293 0 0 1 .81 8.819a8.989 8.989 0 0 1-.664-3.438H.16A4.891 4.891 0 0 1 1.664 1.84 5.3 5.3 0 0 1 3.304.767c.62-.26 1.268-.39 1.942-.39.811 0 1.566.18 2.263.54a5.17 5.17 0 0 1 1.757 1.47A5.265 5.265 0 0 1 11.05.917a4.942 4.942 0 0 1 2.276-.54 5 5 0 0 1 1.935.383c.615.255 1.16.615 1.634 1.08.464.456.827.989 1.086 1.6.26.61.39 1.257.39 1.94 0 1.25-.24 2.428-.718 3.535a9.36 9.36 0 0 1-1.989 2.933l-.055.054-5.7 5.77a.847.847 0 0 1-.657.287zm5.086-7.342c.756-.756 1.31-1.558 1.661-2.406.35-.848.526-1.791.526-2.83 0-.42-.084-.825-.253-1.217a3.143 3.143 0 0 0-.704-1.025 3.32 3.32 0 0 0-1.032-.684 3.072 3.072 0 0 0-1.21-.246c-.346 0-.686.055-1.018.164-.333.11-.64.26-.923.451a2.874 2.874 0 0 0-1.121 1.614c0 .291-.096.535-.287.73a.954.954 0 0 1-.711.295.945.945 0 0 1-.684-.28 1.028 1.028 0 0 1-.314-.69 2.573 2.573 0 0 0-.397-.91 3.215 3.215 0 0 0-.697-.731 3.145 3.145 0 0 0-1.928-.643c-.428 0-.838.082-1.23.246a3.32 3.32 0 0 0-1.04.684c-.31.291-.55.633-.724 1.025a2.98 2.98 0 0 0-.26 1.217H1.98c0 1.002.161 1.914.485 2.734.323.82.832 1.59 1.524 2.31l.055.055 5.195 5.278 5.1-5.14z" fill="#3A3C4D" fill-rule="evenodd"/></svg>