<?xml version="1.0" encoding="UTF-8"?>
<svg width="199px" height="25px" viewBox="0 0 199 25" version="1.1" xmlns="http://www.w3.org/2000/svg" xmlns:xlink="http://www.w3.org/1999/xlink">
    <!-- Generator: Sketch 50.2 (55047) - http://www.bohemiancoding.com/sketch -->
    <title>Wordplease</title>
    <desc>Created with Sketch.</desc>
    <defs></defs>
    <g id="Symbols" stroke="none" stroke-width="1" fill="none" fill-rule="evenodd">
        <g id="header" transform="translate(-154.000000, -46.000000)" fill="#3C88E9">
            <path d="M170.542969,62.0898438 C170.542969,62.5117209 170.660155,62.8544909 170.894531,63.1181641 C171.128907,63.3818373 171.445311,63.5136719 171.84375,63.5136719 C172.230471,63.5136719 172.561522,63.3847669 172.836914,63.1269531 C173.112306,62.8691393 173.261719,62.5468769 173.285156,62.1601562 L173.285156,49.8378906 C173.285156,49.4160135 173.370116,49.008791 173.540039,48.6162109 C173.709962,48.2236308 173.941405,47.8808608 174.234375,47.5878906 C174.527345,47.2949204 174.870115,47.0693367 175.262695,46.9111328 C175.655275,46.7529289 176.074217,46.6738281 176.519531,46.6738281 C176.941408,46.6738281 177.351561,46.7558586 177.75,46.9199219 C178.148439,47.0839852 178.494139,47.3066392 178.787109,47.5878906 C179.08008,47.8808608 179.311523,48.2236308 179.481445,48.6162109 C179.651368,49.008791 179.736328,49.4160135 179.736328,49.8378906 L179.736328,62.40625 C179.736328,63.449224 179.537111,64.4453078 179.138672,65.3945312 C178.740232,66.3437547 178.177738,67.181637 177.451172,67.9082031 C176.736325,68.6230504 175.898442,69.1796855 174.9375,69.578125 C173.976558,69.9765645 172.962896,70.1757812 171.896484,70.1757812 C171.05273,70.1757812 170.241215,70.0439466 169.461914,69.7802734 C168.682613,69.5166002 167.970706,69.132815 167.326172,68.6289062 C165.943352,69.6601614 164.402352,70.1757812 162.703125,70.1757812 C161.648432,70.1757812 160.643559,69.9765645 159.688477,69.578125 C158.733394,69.1796855 157.898441,68.6230504 157.183594,67.9082031 C156.468746,67.1933558 155.912111,66.3613329 155.513672,65.4121094 C155.115232,64.4628859 154.916016,63.4609428 154.916016,62.40625 L154.916016,49.8378906 C154.916016,49.4160135 155.000976,49.008791 155.170898,48.6162109 C155.340821,48.2236308 155.572264,47.8808608 155.865234,47.5878906 C156.146486,47.3066392 156.483396,47.0839852 156.875977,46.9199219 C157.268557,46.7558586 157.687498,46.6738281 158.132812,46.6738281 C158.578127,46.6738281 158.997068,46.7529289 159.389648,46.9111328 C159.782229,47.0693367 160.124999,47.2949204 160.417969,47.5878906 C160.710939,47.8808608 160.939452,48.2236308 161.103516,48.6162109 C161.267579,49.008791 161.349609,49.4160135 161.349609,49.8378906 L161.349609,62.0898438 C161.349609,62.4531268 161.487303,62.7812485 161.762695,63.0742188 C162.038087,63.367189 162.363279,63.5136719 162.738281,63.5136719 C163.14844,63.5136719 163.476561,63.3935559 163.722656,63.1533203 C163.968751,62.9130847 164.103516,62.593752 164.126953,62.1953125 L164.126953,49.890625 C164.126953,49.4453103 164.208984,49.0263692 164.373047,48.6337891 C164.53711,48.241209 164.765624,47.898439 165.058594,47.6054688 C165.375002,47.3124985 165.72949,47.0839852 166.12207,46.9199219 C166.51465,46.7558586 166.921873,46.6738281 167.34375,46.6738281 C167.765627,46.6738281 168.16992,46.7558586 168.556641,46.9199219 C168.943361,47.0839852 169.29492,47.3124985 169.611328,47.6054688 C169.904298,47.898439 170.132812,48.241209 170.296875,48.6337891 C170.460938,49.0263692 170.542969,49.4453103 170.542969,49.890625 L170.542969,62.0898438 Z M197.454687,49.2226562 C198.310161,50.0781293 198.972263,51.091791 199.441016,52.2636719 C199.909768,53.4355527 200.144141,54.7246023 200.144141,56.1308594 L200.144141,60.8066406 C200.144141,62.2128977 199.912698,63.4960879 199.449805,64.65625 C198.986912,65.8164121 198.321879,66.8242145 197.454687,67.6796875 C196.657808,68.4765665 195.717388,69.0917947 194.633398,69.5253906 C193.549409,69.9589865 192.415631,70.1757812 191.232031,70.1757812 C190.036713,70.1757812 188.902935,69.9619162 187.830664,69.5341797 C186.758393,69.1064432 185.812113,68.4882853 184.991797,67.6796875 C184.124605,66.8242145 183.456643,65.8164121 182.987891,64.65625 C182.519138,63.4960879 182.284766,62.2128977 182.284766,60.8066406 L182.284766,56.1308594 C182.284766,54.7246023 182.519138,53.4326231 182.987891,52.2548828 C183.456643,51.0771425 184.124605,50.0664105 184.991797,49.2226562 C185.812113,48.4257773 186.761323,47.8134787 187.839453,47.3857422 C188.917583,46.9580057 190.048432,46.7441406 191.232031,46.7441406 C192.403912,46.7441406 193.53183,46.9580057 194.61582,47.3857422 C195.69981,47.8134787 196.64609,48.4257773 197.454687,49.2226562 Z M193.851172,56.1484375 C193.851172,55.0234319 193.616799,54.2265648 193.148047,53.7578125 C192.679295,53.2890602 192.040629,53.0546875 191.232031,53.0546875 C190.399996,53.0546875 189.749612,53.2773415 189.280859,53.7226562 C188.812107,54.167971 188.577734,54.9531194 188.577734,56.078125 L188.577734,60.859375 C188.577734,61.9726618 188.815037,62.7519509 189.289648,63.1972656 C189.76426,63.6425804 190.411715,63.8652344 191.232031,63.8652344 C192.052348,63.8652344 192.693943,63.64551 193.156836,63.2060547 C193.619729,62.7665994 193.851172,61.9843806 193.851172,60.859375 L193.851172,56.1484375 Z M202.885937,50.0839844 C202.885937,49.6738261 202.967968,49.2753926 203.132031,48.8886719 C203.296095,48.5019512 203.518749,48.1621108 203.8,47.8691406 C204.081251,47.5878892 204.415232,47.3652352 204.801953,47.2011719 C205.188674,47.0371086 205.592967,46.9550781 206.014844,46.9550781 L212.835156,46.9550781 C214.042193,46.9550781 215.199408,47.1923804 216.306836,47.6669922 C217.414263,48.1416039 218.389839,48.8066363 219.233594,49.6621094 C220.077348,50.5175824 220.727732,51.5048772 221.184766,52.6240234 C221.641799,53.7431697 221.870312,54.9121033 221.870312,56.1308594 C221.870312,57.4433659 221.600784,58.6972596 221.061719,59.8925781 C220.522654,61.0878966 219.766802,62.1249956 218.794141,63.0039062 L220.288281,64.7265625 C220.874222,65.4179722 221.167187,66.1328088 221.167187,66.8710938 C221.167187,67.2929709 221.085157,67.7001933 220.921094,68.0927734 C220.75703,68.4853535 220.528517,68.8281235 220.235547,69.1210938 C219.942577,69.414064 219.608596,69.6396476 219.233594,69.7978516 C218.858592,69.9560555 218.466018,70.0351562 218.055859,70.0351562 C217.200386,70.0351562 216.497268,69.7421904 215.946484,69.15625 L212.448437,65.3242188 L209.126172,65.3242188 L209.126172,66.9765625 C209.126172,67.3984396 209.047071,67.7968731 208.888867,68.171875 C208.730663,68.5468769 208.510939,68.8749986 208.229687,69.15625 C207.948436,69.4375014 207.614455,69.6572258 207.227734,69.8154297 C206.841014,69.9736336 206.436721,70.0527344 206.014844,70.0527344 C205.592967,70.0527344 205.188674,69.9736336 204.801953,69.8154297 C204.415232,69.6572258 204.081251,69.4375014 203.8,69.15625 C203.518749,68.8632798 203.296095,68.5292988 203.132031,68.1542969 C202.967968,67.779295 202.885937,67.3867208 202.885937,66.9765625 L202.885937,50.0839844 Z M209.126172,59.1015625 L212.958203,59.1015625 C213.262892,59.1015625 213.576366,59.0195321 213.898633,58.8554688 C214.2209,58.6914054 214.510936,58.4628921 214.76875,58.1699219 C215.342972,57.5253874 215.630078,56.8457067 215.630078,56.1308594 C215.630078,55.7792951 215.550977,55.4248065 215.392773,55.0673828 C215.234569,54.7099592 215.020704,54.3906264 214.751172,54.109375 C214.493358,53.8281236 214.203322,53.6083992 213.881055,53.4501953 C213.558787,53.2919914 213.239455,53.2128906 212.923047,53.2128906 L209.126172,53.2128906 L209.126172,59.1015625 Z M241.680469,60.8066406 C241.680469,62.2128977 241.449026,63.4931583 240.986133,64.6474609 C240.52324,65.8017636 239.864067,66.7890584 239.008594,67.609375 C238.199996,68.3828164 237.262505,68.9746073 236.196094,69.3847656 C235.129682,69.7949239 233.998834,70 232.803516,70 L226.914844,70 C226.492967,70 226.091603,69.9208992 225.710742,69.7626953 C225.329881,69.6044914 224.998829,69.384767 224.717578,69.1035156 C224.424608,68.8105454 224.199024,68.4765644 224.04082,68.1015625 C223.882616,67.7265606 223.803516,67.3339864 223.803516,66.9238281 L223.803516,50.03125 C223.803516,49.6210917 223.882616,49.2255878 224.04082,48.8447266 C224.199024,48.4638653 224.424608,48.1328139 224.717578,47.8515625 C224.998829,47.5703111 225.329881,47.3505867 225.710742,47.1923828 C226.091603,47.0341789 226.492967,46.9550781 226.914844,46.9550781 L232.803516,46.9550781 C233.998834,46.9550781 235.129682,47.1572245 236.196094,47.5615234 C237.262505,47.9658223 238.199996,48.5546836 239.008594,49.328125 C239.864067,50.1367228 240.52324,51.1181583 240.986133,52.2724609 C241.449026,53.4267636 241.680469,54.7128835 241.680469,56.1308594 L241.680469,60.8066406 Z M235.405078,56.078125 C235.405078,55.2929648 235.296681,54.6923849 235.079883,54.2763672 C234.863085,53.8603495 234.570119,53.5791023 234.200976,53.4326172 C233.831834,53.2861321 233.366018,53.2128906 232.803516,53.2128906 L230.04375,53.2128906 L230.04375,63.7597656 L232.803516,63.7597656 C233.64727,63.7597656 234.291795,63.5605489 234.737109,63.1621094 C235.182424,62.7636699 235.405078,61.9960994 235.405078,60.859375 L235.405078,56.078125 Z M254.160547,46.9550781 C255.367584,46.9550781 256.524799,47.1865211 257.632226,47.6494141 C258.739654,48.112307 259.71523,48.7656208 260.558984,49.609375 C261.402738,50.4531292 262.056052,51.4287054 262.518945,52.5361328 C262.981838,53.6435602 263.213281,54.8066345 263.213281,56.0253906 C263.213281,57.2207091 262.978908,58.3720648 262.510156,59.4794922 C262.041404,60.5869196 261.38516,61.5507771 260.541406,62.3710938 C259.697652,63.214848 258.722076,63.8681617 257.614648,64.3310547 C256.507221,64.7939476 255.355865,65.0253906 254.160547,65.0253906 L250.644922,65.0253906 L250.644922,67.2050781 C250.644922,67.6152364 250.562891,68.0107403 250.398828,68.3916016 C250.234765,68.7724628 250.012111,69.1035142 249.730859,69.3847656 C249.449608,69.666017 249.115627,69.8857414 248.728906,70.0439453 C248.342185,70.2021492 247.937893,70.28125 247.516016,70.28125 C247.105857,70.28125 246.710353,70.2050789 246.329492,70.0527344 C245.948631,69.9003899 245.617579,69.6835952 245.336328,69.4023438 C244.715231,68.8164033 244.404687,68.0839888 244.404687,67.2050781 L244.404687,50.0839844 C244.404687,49.6738261 244.486718,49.2753926 244.650781,48.8886719 C244.814844,48.5019512 245.037498,48.1621108 245.31875,47.8691406 C245.600001,47.5878892 245.933982,47.3652352 246.320703,47.2011719 C246.707424,47.0371086 247.105857,46.9550781 247.516016,46.9550781 L254.160547,46.9550781 Z M250.644922,58.7851562 L254.266016,58.7851562 C254.582423,58.7851562 254.898826,58.7119148 255.215234,58.5654297 C255.531642,58.4189446 255.818749,58.2167982 256.076562,57.9589844 C256.334376,57.7011706 256.542382,57.4023454 256.700586,57.0625 C256.85879,56.7226546 256.937891,56.3769549 256.937891,56.0253906 C256.937891,55.6503888 256.861719,55.2900408 256.709375,54.9443359 C256.55703,54.5986311 256.340236,54.2851577 256.058984,54.0039062 C255.80117,53.7578113 255.511134,53.5644538 255.188867,53.4238281 C254.8666,53.2832024 254.547267,53.2128906 254.230859,53.2128906 L250.644922,53.2128906 L250.644922,58.7851562 Z M277.169922,63.8125 C277.591799,63.8125 277.990232,63.8916008 278.365234,64.0498047 C278.740236,64.2080086 279.074217,64.4335923 279.367187,64.7265625 C279.648439,65.0078139 279.868163,65.3417949 280.026367,65.7285156 C280.184571,66.1152363 280.263672,66.5195291 280.263672,66.9414062 C280.263672,67.8203169 279.964847,68.5527314 279.367187,69.1386719 C279.085936,69.4082045 278.754885,69.6191399 278.374023,69.7714844 C277.993162,69.9238289 277.591799,70 277.169922,70 L267.853516,70 C267.642577,70 267.431642,69.9824221 267.220703,69.9472656 L267.097656,69.9121094 C266.406246,69.7714837 265.832033,69.4111357 265.375,68.8310547 C264.917966,68.2509737 264.689453,67.6035192 264.689453,66.8886719 C264.689453,66.7011709 264.707031,66.5195321 264.742187,66.34375 L264.742187,49.7148438 C264.742187,49.3046854 264.824218,48.9121113 264.988281,48.5371094 C265.152344,48.1621075 265.374998,47.8339858 265.65625,47.5527344 C265.937501,47.271483 266.268553,47.0546883 266.649414,46.9023438 C267.030275,46.7499992 267.431638,46.6738281 267.853516,46.6738281 C268.275393,46.6738281 268.679685,46.7499992 269.066406,46.9023438 C269.453127,47.0546883 269.787108,47.271483 270.068359,47.5527344 C270.349611,47.8339858 270.572265,48.1621075 270.736328,48.5371094 C270.900391,48.9121113 270.982422,49.3046854 270.982422,49.7148438 L270.982422,63.7773438 L277.169922,63.8125 Z M285.15,70 C284.622653,69.9531248 284.13926,69.7919936 283.699805,69.5166016 C283.260349,69.2412096 282.91172,68.8808616 282.653906,68.4355469 C282.396092,67.9902321 282.267187,67.4980496 282.267187,66.9589844 L282.267187,50.0839844 C282.267187,49.6621073 282.346288,49.2607441 282.504492,48.8798828 C282.662696,48.4990215 282.88242,48.1621108 283.163672,47.8691406 C283.737893,47.2597626 284.470308,46.9550781 285.360937,46.9550781 L294.694922,46.9550781 C295.116799,46.9550781 295.515232,47.0341789 295.890234,47.1923828 C296.265236,47.3505867 296.599217,47.5761704 296.892187,47.8691406 C297.173439,48.1621108 297.390233,48.5019512 297.542578,48.8886719 C297.694922,49.2753926 297.771094,49.6738261 297.771094,50.0839844 C297.771094,50.5058615 297.694922,50.9101543 297.542578,51.296875 C297.390233,51.6835957 297.173439,52.0175767 296.892187,52.2988281 C296.599217,52.5917983 296.265236,52.817382 295.890234,52.9755859 C295.515232,53.1337899 295.116799,53.2128906 294.694922,53.2128906 L288.507422,53.2128906 L288.507422,55.09375 L293.341406,55.09375 C293.763283,55.09375 294.164646,55.1699211 294.545508,55.3222656 C294.926369,55.4746101 295.25742,55.6914048 295.538672,55.9726562 C295.819923,56.2539077 296.042577,56.5878887 296.20664,56.9746094 C296.370704,57.3613301 296.452734,57.7597636 296.452734,58.1699219 C296.452734,59.0136761 296.14805,59.7226534 295.538672,60.296875 C295.245702,60.5664076 294.91172,60.777343 294.536719,60.9296875 C294.161717,61.082032 293.763283,61.1582031 293.341406,61.1582031 L288.507422,61.1582031 L288.507422,63.7773438 L294.694922,63.7773438 C295.116799,63.7773438 295.515232,63.8564445 295.890234,64.0146484 C296.265236,64.1728524 296.599217,64.398436 296.892187,64.6914062 C297.173439,64.9843765 297.390233,65.3271465 297.542578,65.7197266 C297.694922,66.1123067 297.771094,66.5195291 297.771094,66.9414062 C297.771094,67.8203169 297.478128,68.5527314 296.892187,69.1386719 C296.610936,69.4082045 296.279885,69.6191399 295.899023,69.7714844 C295.518162,69.9238289 295.116799,70 294.694922,70 L285.15,70 Z M313.274609,70.2460938 C312.829294,70.2460938 312.407424,70.1640633 312.008984,70 C311.610545,69.8359367 311.264845,69.6074233 310.971875,69.3144531 C310.678905,69.0214829 310.447462,68.6787129 310.277539,68.2861328 C310.107616,67.8935527 310.022656,67.4863302 310.022656,67.0644531 L310.022656,64.9550781 L305.382031,64.9550781 L305.382031,67.0644531 C305.382031,67.4863302 305.300001,67.8935527 305.135937,68.2861328 C304.971874,68.6787129 304.743361,69.0214829 304.45039,69.3144531 C304.15742,69.6074233 303.81465,69.8359367 303.42207,70 C303.02949,70.1640633 302.610549,70.2460938 302.165234,70.2460938 C301.719919,70.2460938 301.300978,70.1640633 300.908398,70 C300.515818,69.8359367 300.178907,69.6074233 299.897656,69.3144531 C299.604686,69.0214829 299.373243,68.6787129 299.20332,68.2861328 C299.033397,67.8935527 298.948437,67.4863302 298.948437,67.0644531 L298.948437,56.4648438 C298.948437,54.9999927 299.144724,53.6669982 299.537305,52.4658203 C299.929885,51.2646424 300.501168,50.2421917 301.251172,49.3984375 C302.001175,48.5429645 302.921088,47.8925804 304.010937,47.4472656 C305.100787,47.0019509 306.325384,46.7792969 307.684765,46.7792969 C309.032428,46.7792969 310.248237,46.9902323 311.332226,47.4121094 C312.416216,47.8339865 313.339059,48.4609333 314.100781,49.2929688 C315.68282,51.0273524 316.473828,53.5117026 316.473828,56.7460938 L316.473828,67.0644531 C316.473828,67.4863302 316.391798,67.8935527 316.227734,68.2861328 C316.063671,68.6787129 315.835158,69.0214829 315.542187,69.3144531 C315.249217,69.6074233 314.903517,69.8359367 314.505078,70 C314.106638,70.1640633 313.696486,70.2460938 313.274609,70.2460938 Z M310.022656,58.5566406 L310.022656,56.6933594 C310.022656,55.4394469 309.858595,54.5400418 309.530469,53.9951172 C309.202342,53.4501926 308.633988,53.1777344 307.82539,53.1777344 C307.344919,53.1777344 306.958204,53.2304682 306.665234,53.3359375 C306.372264,53.4414068 306.137891,53.6171863 305.962109,53.8632812 C305.575389,54.4023464 305.382031,55.4042896 305.382031,56.8691406 L305.382031,58.5566406 L310.022656,58.5566406 Z M321.8875,70 C321.348435,70 320.853322,69.9179696 320.402148,69.7539062 C319.950974,69.5898429 319.56133,69.3613296 319.233203,69.0683594 C318.928514,68.7753892 318.694141,68.4267598 318.530078,68.0224609 C318.366015,67.618162 318.283984,67.1757837 318.283984,66.6953125 C318.283984,65.746089 318.591598,65.0283227 319.206836,64.5419922 C319.822073,64.0556616 320.715619,63.8125 321.8875,63.8125 L327.670703,63.8125 C327.79961,63.8125 327.934374,63.7890627 328.075,63.7421875 C328.215626,63.6953123 328.338671,63.6250005 328.44414,63.53125 C328.737111,63.3085926 328.883594,63.0156268 328.883594,62.6523438 C328.883594,62.148435 328.690236,61.8027353 328.303515,61.6152344 C328.151171,61.5449215 328.016407,61.498047 327.899219,61.4746094 L327.705859,61.4394531 L324.946094,61.4394531 C323.99687,61.4160155 323.091606,61.2255877 322.230273,60.8681641 C321.368941,60.5107404 320.616019,60.0156282 319.971484,59.3828125 C319.315231,58.738278 318.81133,58.0029338 318.459765,57.1767578 C318.108201,56.3505818 317.932422,55.4628954 317.932422,54.5136719 C317.932422,53.529292 318.128709,52.577153 318.521289,51.6572266 C318.913869,50.7373001 319.467574,49.9199254 320.182422,49.2050781 C320.897269,48.4902308 321.717573,47.9365254 322.643359,47.5439453 C323.569145,47.1513652 324.535932,46.9550781 325.54375,46.9550781 L330.518359,46.9550781 C331.666802,46.9550781 332.563278,47.2187474 333.207812,47.7460938 C333.852347,48.2734401 334.174609,49.0175733 334.174609,49.9785156 C334.174609,51.0214896 333.855276,51.8212863 333.216601,52.3779297 C332.577926,52.9345731 331.678521,53.2128906 330.518359,53.2128906 L325.121875,53.2128906 C324.817186,53.2128906 324.571094,53.30371 324.383594,53.4853516 C324.196093,53.6669931 324.102344,53.8984361 324.102344,54.1796875 C324.102344,54.4726577 324.178515,54.7216787 324.330859,54.9267578 C324.483204,55.131837 324.68242,55.234375 324.928515,55.234375 L327.582812,55.234375 C328.602349,55.234375 329.572066,55.4072248 330.491992,55.7529297 C331.411918,56.0986345 332.223434,56.5878875 332.926562,57.2207031 C333.629691,57.8535188 334.171678,58.6035113 334.552539,59.4707031 C334.9334,60.337895 335.123828,61.2753856 335.123828,62.2832031 C335.123828,63.2910207 334.9334,64.2636672 334.552539,65.2011719 C334.171678,66.1386766 333.629691,66.9648402 332.926562,67.6796875 C332.223434,68.4179724 331.411918,68.9892558 330.491992,69.3935547 C329.572066,69.7978536 328.602349,70 327.582812,70 L321.8875,70 Z M339.570703,70 C339.043357,69.9531248 338.559963,69.7919936 338.120508,69.5166016 C337.681052,69.2412096 337.332423,68.8808616 337.074609,68.4355469 C336.816795,67.9902321 336.68789,67.4980496 336.68789,66.9589844 L336.68789,50.0839844 C336.68789,49.6621073 336.766991,49.2607441 336.925195,48.8798828 C337.083399,48.4990215 337.303123,48.1621108 337.584375,47.8691406 C338.158596,47.2597626 338.891011,46.9550781 339.78164,46.9550781 L349.115625,46.9550781 C349.537502,46.9550781 349.935935,47.0341789 350.310937,47.1923828 C350.685939,47.3505867 351.01992,47.5761704 351.31289,47.8691406 C351.594142,48.1621108 351.810937,48.5019512 351.963281,48.8886719 C352.115626,49.2753926 352.191797,49.6738261 352.191797,50.0839844 C352.191797,50.5058615 352.115626,50.9101543 351.963281,51.296875 C351.810937,51.6835957 351.594142,52.0175767 351.31289,52.2988281 C351.01992,52.5917983 350.685939,52.817382 350.310937,52.9755859 C349.935935,53.1337899 349.537502,53.2128906 349.115625,53.2128906 L342.928125,53.2128906 L342.928125,55.09375 L347.762109,55.09375 C348.183986,55.09375 348.585349,55.1699211 348.966211,55.3222656 C349.347072,55.4746101 349.678123,55.6914048 349.959375,55.9726562 C350.240626,56.2539077 350.46328,56.5878887 350.627344,56.9746094 C350.791407,57.3613301 350.873437,57.7597636 350.873437,58.1699219 C350.873437,59.0136761 350.568753,59.7226534 349.959375,60.296875 C349.666405,60.5664076 349.332424,60.777343 348.957422,60.9296875 C348.58242,61.082032 348.183986,61.1582031 347.762109,61.1582031 L342.928125,61.1582031 L342.928125,63.7773438 L349.115625,63.7773438 C349.537502,63.7773438 349.935935,63.8564445 350.310937,64.0146484 C350.685939,64.1728524 351.01992,64.398436 351.31289,64.6914062 C351.594142,64.9843765 351.810937,65.3271465 351.963281,65.7197266 C352.115626,66.1123067 352.191797,66.5195291 352.191797,66.9414062 C352.191797,67.8203169 351.898831,68.5527314 351.31289,69.1386719 C351.031639,69.4082045 350.700588,69.6191399 350.319726,69.7714844 C349.938865,69.9238289 349.537502,70 349.115625,70 L339.570703,70 Z" id="Wordplease"></path>
        </g>
    </g>
</svg>