<svg width="21" height="21" xmlns="http://www.w3.org/2000/svg"><path d="M18.257 21c-.302 0-.602-.062-.899-.186a2.555 2.555 0 0 1-.792-.517l-.067-.066-5.486-5.52c-.497-.494-.746-1.056-.746-1.684 0-.274.053-.542.16-.802.106-.261.257-.498.453-.71l-.986-.955a5.78 5.78 0 0 1-1.784 1.054 6.011 6.011 0 0 1-2.104.365 5.827 5.827 0 0 1-2.304-.464 6.196 6.196 0 0 1-1.93-1.287A5.887 5.887 0 0 1 .465 8.311 5.847 5.847 0 0 1 0 5.996c0-.813.155-1.585.466-2.315.31-.73.746-1.373 1.305-1.93A5.993 5.993 0 0 1 3.702.458 5.9 5.9 0 0 1 6.006 0c.816 0 1.591.153 2.323.458a5.825 5.825 0 0 1 1.925 1.293c.55.557.978 1.2 1.285 1.93.306.73.46 1.502.46 2.315a5.91 5.91 0 0 1-.36 2.063 6.125 6.125 0 0 1-1.026 1.784l.972.942c0 .01.005.013.014.013v.014a2.104 2.104 0 0 1 1.371-.504c.32 0 .628.064.926.192.297.128.561.303.792.524l.093.08 5.447 5.492c0 .009.004.013.013.013v.013c.488.487.741 1.026.759 1.619 0 .53-.204 1.021-.613 1.472l-.066.08-.013.013-.48.49c-.47.47-.994.704-1.571.704zM6.006 10.852c.683 0 1.32-.126 1.91-.379A4.951 4.951 0 0 0 9.482 9.42a4.855 4.855 0 0 0 1.399-3.423c0-.663-.123-1.291-.367-1.884A4.687 4.687 0 0 0 9.481 2.56a4.776 4.776 0 0 0-1.564-1.034 4.954 4.954 0 0 0-1.911-.372 4.855 4.855 0 0 0-3.45 1.406c-.443.451-.79.973-1.038 1.566a4.787 4.787 0 0 0-.373 1.87c0 .646.125 1.265.373 1.857A4.927 4.927 0 0 0 2.557 9.42a4.797 4.797 0 0 0 3.449 1.433zm12.078 8.94a.712.712 0 0 0 .16.014c.248 0 .488-.115.719-.345.008 0 .013-.004.013-.013h.013l.44-.425.066-.08c.204-.203.307-.424.307-.663 0-.283-.143-.566-.427-.849l-5.526-5.558v-.013c-.009 0-.013-.005-.013-.014-.24-.212-.48-.34-.72-.384l-.12-.013c-.239 0-.487.11-.745.331l-.04.04-.466.49a.905.905 0 0 0-.32.69c0 .301.143.593.427.876l5.5 5.532c.221.221.465.35.732.385z" fill-rule="evenodd" fill-opacity=".747"/></svg>